<svg id="visual" viewBox="0 0 900 600" width="900" height="600" xmlns="http://www.w3.org/2000/svg" xmlns:xlink="http://www.w3.org/1999/xlink" version="1.1"><rect width="900" height="600" fill="#221124"></rect><g><g transform="translate(6 488)"><path d="M79.7 -46.5C94.3 -20.7 91 15 74.7 39.2C58.4 63.4 29.2 76.1 1.8 75.1C-25.6 74 -51.3 59.2 -66.8 35.4C-82.3 11.6 -87.8 -21.1 -75 -45.9C-62.2 -70.6 -31.1 -87.4 0.7 -87.9C32.5 -88.3 65.1 -72.3 79.7 -46.5Z" fill="none" stroke="#85468c" stroke-width="20"></path></g><g transform="translate(370 308)"><path d="M59 -33.9C72.6 -10.5 77.2 18.3 65.8 37.7C54.4 57.1 27.2 67 0.2 66.9C-26.7 66.8 -53.5 56.5 -64.5 37.4C-75.5 18.2 -70.8 -10 -57.4 -33.2C-44.1 -56.4 -22 -74.7 0.3 -74.9C22.7 -75.1 45.4 -57.2 59 -33.9Z" fill="none" stroke="#85468c" stroke-width="20"></path></g><g transform="translate(567 189)"><path d="M39.9 -22.1C47.5 -9.7 46.8 8.5 38.8 22C30.7 35.6 15.4 44.6 -0.2 44.8C-15.8 44.9 -31.6 36.1 -39.2 22.8C-46.8 9.4 -46.2 -8.5 -38.3 -21C-30.4 -33.6 -15.2 -40.8 0.4 -41.1C16.1 -41.3 32.2 -34.6 39.9 -22.1Z" fill="none" stroke="#85468c" stroke-width="20"></path></g><g transform="translate(857 115)"><path d="M32.1 -17.4C38.7 -7.1 39.1 7.9 32.8 18.9C26.4 29.9 13.2 37 -0.1 37C-13.3 37.1 -26.6 30.1 -32.5 19.3C-38.3 8.6 -36.7 -5.8 -30.1 -16.2C-23.4 -26.6 -11.7 -32.9 0.5 -33.2C12.7 -33.5 25.5 -27.8 32.1 -17.4Z" fill="none" stroke="#85468c" stroke-width="20"></path></g><g transform="translate(878 572)"><path d="M26.7 -15.1C32 -6.2 31.9 6.1 26.5 14C21.2 22 10.6 25.7 0.7 25.3C-9.3 24.9 -18.6 20.5 -23.9 12.5C-29.2 4.5 -30.7 -7 -26 -15.5C-21.4 -23.9 -10.7 -29.3 0 -29.3C10.7 -29.3 21.4 -23.9 26.7 -15.1Z" fill="none" stroke="#85468c" stroke-width="20"></path></g><g transform="translate(145 192)"><path d="M9.6 -5.9C11.6 -2 11.9 2.5 10 5.8C8.2 9.1 4.1 11.1 -0.2 11.2C-4.5 11.3 -9 9.5 -11 6.2C-13 2.9 -12.5 -2 -10.3 -6C-8 -10 -4 -13.1 -0.1 -13C3.8 -12.9 7.5 -9.7 9.6 -5.9Z" fill="none" stroke="#85468c" stroke-width="20"></path></g><g transform="translate(560 583)"><path d="M13.7 -7.9C16.1 -3.7 15.3 2.3 12.5 6.7C9.7 11.1 4.8 13.8 0 13.8C-4.9 13.8 -9.8 11.2 -12.2 7C-14.6 2.9 -14.5 -2.7 -12.1 -6.9C-9.6 -11.2 -4.8 -14 0.4 -14.2C5.6 -14.5 11.3 -12.1 13.7 -7.9Z" fill="none" stroke="#85468c" stroke-width="20"></path></g><g transform="translate(242 507)"><path d="M22 -12.1C27 -4 28.5 6.7 24.3 15.1C20 23.4 10 29.5 -0.2 29.6C-10.3 29.7 -20.6 23.8 -25.8 14.9C-31 5.9 -31.1 -6 -25.9 -14.2C-20.8 -22.4 -10.4 -26.9 -0.9 -26.3C8.5 -25.8 17 -20.2 22 -12.1Z" fill="none" stroke="#85468c" stroke-width="20"></path></g><g transform="translate(292 6)"><path d="M80.4 -44.5C95.8 -19.7 94.1 16.8 77.9 41.2C61.6 65.6 30.8 77.8 2.8 76.2C-25.3 74.6 -50.5 59.2 -63.9 36.4C-77.4 13.7 -78.9 -16.4 -66.3 -39.6C-53.6 -62.7 -26.8 -79 2.8 -80.7C32.5 -82.3 65 -69.3 80.4 -44.5Z" fill="none" stroke="#85468c" stroke-width="20"></path></g><g transform="translate(757 375)"><path d="M66.8 -36C82.2 -11.9 87.3 20.7 74.4 43.3C61.6 65.9 30.8 78.5 2.1 77.3C-26.5 76 -53.1 61 -65.8 38.5C-78.5 15.9 -77.4 -14.1 -64.2 -36.9C-50.9 -59.7 -25.4 -75.3 0.1 -75.3C25.7 -75.4 51.5 -60 66.8 -36Z" fill="none" stroke="#85468c" stroke-width="20"></path></g></g></svg>