<svg id="visual" viewBox="0 0 900 600" width="900" height="600" xmlns="http://www.w3.org/2000/svg" xmlns:xlink="http://www.w3.org/1999/xlink" version="1.1"><path d="M0 67L16.7 65C33.3 63 66.7 59 100 65C133.3 71 166.7 87 200 86C233.3 85 266.7 67 300 64C333.3 61 366.7 73 400 74C433.3 75 466.7 65 500 67C533.3 69 566.7 83 600 83C633.3 83 666.7 69 700 60C733.3 51 766.7 47 800 46C833.3 45 866.7 47 883.3 48L900 49L900 0L883.3 0C866.7 0 833.3 0 800 0C766.7 0 733.3 0 700 0C666.7 0 633.3 0 600 0C566.7 0 533.3 0 500 0C466.7 0 433.3 0 400 0C366.7 0 333.3 0 300 0C266.7 0 233.3 0 200 0C166.7 0 133.3 0 100 0C66.7 0 33.3 0 16.7 0L0 0Z" fill="#006a0b"></path><path d="M0 193L16.7 193C33.3 193 66.7 193 100 193C133.3 193 166.7 193 200 210C233.3 227 266.7 261 300 266C333.3 271 366.7 247 400 256C433.3 265 466.7 307 500 315C533.3 323 566.7 297 600 266C633.3 235 666.7 199 700 189C733.3 179 766.7 195 800 201C833.3 207 866.7 203 883.3 201L900 199L900 47L883.3 46C866.7 45 833.3 43 800 44C766.7 45 733.3 49 700 58C666.7 67 633.3 81 600 81C566.7 81 533.3 67 500 65C466.7 63 433.3 73 400 72C366.7 71 333.3 59 300 62C266.7 65 233.3 83 200 84C166.7 85 133.3 69 100 63C66.7 57 33.3 61 16.7 63L0 65Z" fill="#159a11"></path><path d="M0 409L16.7 397C33.3 385 66.7 361 100 362C133.3 363 166.7 389 200 405C233.3 421 266.7 427 300 428C333.3 429 366.7 425 400 428C433.3 431 466.7 441 500 447C533.3 453 566.7 455 600 439C633.3 423 666.7 389 700 388C733.3 387 766.7 419 800 424C833.3 429 866.7 407 883.3 396L900 385L900 197L883.3 199C866.7 201 833.3 205 800 199C766.7 193 733.3 177 700 187C666.7 197 633.3 233 600 264C566.7 295 533.3 321 500 313C466.7 305 433.3 263 400 254C366.7 245 333.3 269 300 264C266.7 259 233.3 225 200 208C166.7 191 133.3 191 100 191C66.7 191 33.3 191 16.7 191L0 191Z" fill="#36b431"></path><path d="M0 493L16.7 492C33.3 491 66.7 489 100 499C133.3 509 166.7 531 200 531C233.3 531 266.7 509 300 498C333.3 487 366.7 487 400 498C433.3 509 466.7 531 500 535C533.3 539 566.7 525 600 514C633.3 503 666.7 495 700 499C733.3 503 766.7 519 800 524C833.3 529 866.7 523 883.3 520L900 517L900 383L883.3 394C866.7 405 833.3 427 800 422C766.7 417 733.3 385 700 386C666.7 387 633.3 421 600 437C566.7 453 533.3 451 500 445C466.7 439 433.3 429 400 426C366.7 423 333.3 427 300 426C266.7 425 233.3 419 200 403C166.7 387 133.3 361 100 360C66.7 359 33.3 383 16.7 395L0 407Z" fill="#159a11"></path><path d="M0 601L16.7 601C33.3 601 66.7 601 100 601C133.3 601 166.7 601 200 601C233.3 601 266.7 601 300 601C333.3 601 366.7 601 400 601C433.3 601 466.7 601 500 601C533.3 601 566.7 601 600 601C633.3 601 666.7 601 700 601C733.3 601 766.7 601 800 601C833.3 601 866.7 601 883.3 601L900 601L900 515L883.3 518C866.7 521 833.3 527 800 522C766.7 517 733.3 501 700 497C666.7 493 633.3 501 600 512C566.7 523 533.3 537 500 533C466.7 529 433.3 507 400 496C366.7 485 333.3 485 300 496C266.7 507 233.3 529 200 529C166.7 529 133.3 507 100 497C66.7 487 33.3 489 16.7 490L0 491Z" fill="#006a0b"></path></svg>